<svg id="Layer_1" data-name="Layer 1" xmlns="http://www.w3.org/2000/svg" viewBox="0 0 100 100"><defs><style>.cls-1{fill:#7d7f81;}.cls-2{fill:#677086;}.cls-3{fill:#03adb5;}.cls-4{fill:#313942;}.cls-5{fill:#56808d;}.cls-6{fill:none;}</style></defs><title>Untitled-2</title><g id="Small_circles"><g id="_05" data-name="05"><path class="cls-1" d="M65.64,89.74a2.06,2.06,0,1,1-2.59-1.33A2.06,2.06,0,0,1,65.64,89.74Z" transform="translate(0 0)"/></g><g id="_04" data-name="04"><path class="cls-2" d="M86.12,73.28a2.06,2.06,0,1,1-2.88.46A2.06,2.06,0,0,1,86.12,73.28Z" transform="translate(0 0)"/></g><g id="_03" data-name="03"><path class="cls-3" d="M93,47.94A2.06,2.06,0,1,1,91,50,2.06,2.06,0,0,1,93,47.94Z" transform="translate(0 0)"/></g><g id="_02" data-name="02"><path class="cls-4" d="M83.7,23.38a2.06,2.06,0,0,1,2.42,3.34,2.06,2.06,0,1,1-2.42-3.34Z" transform="translate(0 0)"/></g><g id="_01" data-name="01"><path class="cls-5" d="M61.72,9a2.06,2.06,0,1,1,1.33,2.6A2.07,2.07,0,0,1,61.72,9Z" transform="translate(0 0)"/></g></g><g id="Stroke_2"><g id="_04-2" data-name="04"><path class="cls-1" d="M67.48,89.55l-.45-1A42.23,42.23,0,0,0,82.11,77.57l.85.74A43.4,43.4,0,0,1,67.48,89.55Z" transform="translate(0 0)"/></g><g id="_03-2" data-name="03"><path class="cls-2" d="M87.5,72.05l-1-.57a42.34,42.34,0,0,0,5.76-17.72l1.13.11A43.44,43.44,0,0,1,87.5,72.05Z" transform="translate(0 0)"/></g><g id="_02-2" data-name="02"><path class="cls-3" d="M92.28,46.24a42,42,0,0,0-5.75-17.72l1-.58a43.38,43.38,0,0,1,5.91,18.2Z" transform="translate(0 0)"/></g><g id="_01-2" data-name="01"><path class="cls-4" d="M82.1,22.44A42.08,42.08,0,0,0,67,11.48l.44-1A43.29,43.29,0,0,1,83,21.69Z" transform="translate(0 0)"/></g></g><g id="Circle_stroke"><g id="_05-2" data-name="05"><path class="cls-1" d="M63.68,94.76a4.38,4.38,0,0,1-4.17-3,4.4,4.4,0,0,1,2.82-5.53A4.43,4.43,0,0,1,63.68,86,4.38,4.38,0,0,1,65,94.54,4.21,4.21,0,0,1,63.68,94.76Zm0-7.64a3.08,3.08,0,0,0-1,.16,3.25,3.25,0,0,0,1,6.35,3.49,3.49,0,0,0,1-.16,3.25,3.25,0,0,0-1-6.35Z" transform="translate(0 0)"/></g><g id="_04-3" data-name="04"><path class="cls-2" d="M84.9,79.34a4.39,4.39,0,0,1-3.54-7,4.38,4.38,0,1,1,3.54,7Zm0-7.64A3.25,3.25,0,0,0,83,77.58a3.22,3.22,0,0,0,1.91.63,3.28,3.28,0,0,0,2.64-1.35,3.25,3.25,0,0,0-2.63-5.16Z" transform="translate(0 0)"/></g><g id="_03-3" data-name="03"><path class="cls-3" d="M93,54.39A4.39,4.39,0,1,1,97.4,50,4.39,4.39,0,0,1,93,54.39Zm0-7.64A3.25,3.25,0,1,0,96.27,50,3.26,3.26,0,0,0,93,46.75Z" transform="translate(0 0)"/></g><g id="_02-3" data-name="02"><path class="cls-4" d="M84.91,29.43a4.4,4.4,0,0,1-3.55-1.8,4.39,4.39,0,0,1,3.54-7,4.39,4.39,0,1,1,0,8.77Zm0-7.64a3.27,3.27,0,0,0-3.21,2.75,3.25,3.25,0,0,0,3.22,3.76,3.25,3.25,0,0,0,2.63-5.16A3.28,3.28,0,0,0,84.9,21.79Z" transform="translate(0 0)"/></g><g id="_01-3" data-name="01"><path class="cls-5" d="M63.68,14a4.43,4.43,0,0,1-1.35-.21,4.4,4.4,0,0,1-2.82-5.53,4.38,4.38,0,0,1,4.17-3A4.21,4.21,0,0,1,65,5.46,4.38,4.38,0,0,1,63.68,14Zm0-7.64a3.25,3.25,0,0,0-1,6.35,3.08,3.08,0,0,0,1,.16,3.24,3.24,0,0,0,3.1-2.25,3.27,3.27,0,0,0-2.09-4.1A3.49,3.49,0,0,0,63.68,6.37Z" transform="translate(0 0)"/></g></g><rect class="cls-6" width="100" height="100"/></svg>
