<svg id="Layer_1" data-name="Layer 1" xmlns="http://www.w3.org/2000/svg" viewBox="0 0 49 49"><defs><style>.cls-1{fill:#242d84;}</style></defs><title>Untitled-7</title><path class="cls-1" d="M49.5,25A24.5,24.5,0,1,1,25,.5,24.5,24.5,0,0,1,49.5,25ZM25.09,6.25a9.42,9.42,0,1,0,9.43,9.42A9.42,9.42,0,0,0,25.09,6.25Zm0,40.14c5.83,0,10.41-1.2,14.58-4.4a2,2,0,0,0,.71-2.09c-1.86-7.3-7.58-13.49-15.29-13.49S11.67,32.6,9.8,39.9A2,2,0,0,0,10.52,42C14.69,45.19,19.27,46.39,25.09,46.39Z" transform="translate(-0.5 -0.5)"/></svg>
