<svg id="Layer_1" data-name="Layer 1" xmlns="http://www.w3.org/2000/svg" viewBox="0 0 49 49"><defs><style>.cls-1{fill:#4272b7;}.cls-2{fill:#fff;}</style></defs><title>Untitled-7</title><path class="cls-1" d="M49.5,25A24.5,24.5,0,1,0,21.17,49.2V32.08H15V25h6.22V19.6c0-6.14,3.66-9.53,9.26-9.53a37.48,37.48,0,0,1,5.48.48v6H32.82c-3,0-4,1.89-4,3.82V25h6.79l-1.08,7.08H28.83V49.2A24.5,24.5,0,0,0,49.5,25Z" transform="translate(-0.5 -0.5)"/><path class="cls-2" d="M34.54,32.08,35.62,25H28.83V20.4c0-1.93,1-3.82,4-3.82h3.09v-6a37.48,37.48,0,0,0-5.48-.48c-5.6,0-9.26,3.39-9.26,9.53V25H15v7.08h6.22V49.2a24.6,24.6,0,0,0,7.66,0V32.08Z" transform="translate(-0.5 -0.5)"/></svg>
