<svg id="Layer_1" data-name="Layer 1" xmlns="http://www.w3.org/2000/svg" viewBox="0 0 49 49"><defs><style>.cls-1{fill:#fff;}.cls-2{fill:#00b1c8;}.cls-3{fill:#4f4c9f;}.cls-4{fill:#ef5023;}</style></defs><title>Untitled-7</title><circle class="cls-1" cx="24.5" cy="24.5" r="24.5"/><path class="cls-2" d="M21.67,14.42a5.9,5.9,0,1,0-11.8,0h0V34.66l11.81-6.81V14.42Z" transform="translate(-0.5 -0.5)"/><path class="cls-1" d="M18.76,12.69a3.45,3.45,0,1,0-1.26,4.73A3.45,3.45,0,0,0,18.76,12.69Z" transform="translate(-0.5 -0.5)"/><path class="cls-3" d="M17.46,12.12A2.39,2.39,0,1,0,19.15,15,2.38,2.38,0,0,0,17.46,12.12Z" transform="translate(-0.5 -0.5)"/><path class="cls-4" d="M31.28,22.3a5.9,5.9,0,0,1,5.9,10.23h0l-15.5,8.95V27.85l9.6-5.55Z" transform="translate(-0.5 -0.5)"/><path class="cls-1" d="M37.22,29.15A3.45,3.45,0,1,1,36,24.42,3.45,3.45,0,0,1,37.22,29.15Z" transform="translate(-0.5 -0.5)"/><path class="cls-3" d="M35.92,29.72A2.39,2.39,0,1,1,37.6,26.8,2.37,2.37,0,0,1,35.92,29.72Z" transform="translate(-0.5 -0.5)"/><polygon class="cls-3" points="21.18 27.35 9.37 34.16 21.18 40.98 21.18 27.35"/></svg>
