<svg id="Layer_1" data-name="Layer 1" xmlns="http://www.w3.org/2000/svg" viewBox="0 0 90.73 29.93"><defs><style>.cls-1{fill:#808285;}.cls-2{fill:#00b1c9;}.cls-3{fill:#fff;}.cls-4{fill:#4f4ca0;}.cls-5{fill:#f05123;}</style></defs><title>Untitled-1</title><path class="cls-1" d="M262.72,224v-1.67H260v-4.06l-2,1.16v2.9h-2V224h2v6a3.12,3.12,0,0,0,4.66,2.79V231a2.79,2.79,0,0,1-1.22.34c-1,0-1.42-.61-1.42-1.58V224Z" transform="translate(-203.48 -210.51)"/><polygon class="cls-1" points="35.95 20.62 35.95 7.74 33.81 8.96 33.81 22.55 41.58 22.55 41.58 20.62 35.95 20.62"/><path class="cls-1" d="M270.24,224.82l1.62-.94a4.5,4.5,0,0,0-3.74-1.56c-2.51,0-3.81,1.65-3.74,3.05.07,1.65,1.15,2.41,3.42,3.24,1.61.58,2.26,1,2.26,1.59s-.94,1.14-2.08,1.14a3.43,3.43,0,0,1-2.35-.86l-1.71,1a5.23,5.23,0,0,0,4.06,1.7c2.75,0,4.16-1.54,4-3.06s-1-2.23-2.95-2.94-2.81-1.21-2.81-1.95.7-1.25,1.87-1.25A3,3,0,0,1,270.24,224.82Z" transform="translate(-203.48 -210.51)"/><path class="cls-1" d="M255.77,227.77c0-3.11-1.61-5.46-4.9-5.46a5.43,5.43,0,0,0,0,10.86,5.55,5.55,0,0,0,4.42-2.12l-1.6-.93a4.12,4.12,0,0,1-2.82,1.22,3.23,3.23,0,0,1-3.39-3h8.23Zm-8.21-.94a3.2,3.2,0,0,1,3.17-2.79,2.83,2.83,0,0,1,3,2.79Z" transform="translate(-203.48 -210.51)"/><path class="cls-1" d="M283,227.77c0-3.11-1.61-5.46-4.9-5.46a5.43,5.43,0,0,0,0,10.86,5.53,5.53,0,0,0,4.42-2.12l-1.59-.93a4.13,4.13,0,0,1-2.83,1.22,3.23,3.23,0,0,1-3.39-3h8.23Zm-8.26-.94a3.19,3.19,0,0,1,3.17-2.79,2.82,2.82,0,0,1,2.94,2.79Z" transform="translate(-203.48 -210.51)"/><path class="cls-1" d="M294.21,227.77c0-3.11-1.61-5.46-4.9-5.46a5.43,5.43,0,0,0,0,10.86,5.53,5.53,0,0,0,4.42-2.12l-1.6-.93a4.12,4.12,0,0,1-2.82,1.22,3.23,3.23,0,0,1-3.39-3h8.23Zm-8.33-.94a3.2,3.2,0,0,1,3.17-2.79,2.83,2.83,0,0,1,2.95,2.79Z" transform="translate(-203.48 -210.51)"/><path class="cls-2" d="M214.2,215.87a5.36,5.36,0,0,0-10.72,0h0v18.38l10.72-6.19V215.87Z" transform="translate(-203.48 -210.51)"/><path class="cls-3" d="M211.56,214.3a3.14,3.14,0,1,0-1.15,4.29A3.14,3.14,0,0,0,211.56,214.3Z" transform="translate(-203.48 -210.51)"/><path class="cls-4" d="M210.37,213.78a2.17,2.17,0,1,0,1.54,2.65A2.17,2.17,0,0,0,210.37,213.78Z" transform="translate(-203.48 -210.51)"/><path class="cls-5" d="M222.92,223a5.29,5.29,0,0,1,2.68-.72,5.36,5.36,0,0,1,2.68,10h0l-14.08,8.13V228.06l8.72-5Z" transform="translate(-203.48 -210.51)"/><path class="cls-3" d="M228.32,229.24a3.14,3.14,0,1,1-1.15-4.29A3.14,3.14,0,0,1,228.32,229.24Z" transform="translate(-203.48 -210.51)"/><path class="cls-4" d="M227.13,229.76a2.16,2.16,0,1,1,1.53-2.65A2.16,2.16,0,0,1,227.13,229.76Z" transform="translate(-203.48 -210.51)"/><polygon class="cls-4" points="10.72 17.55 0 23.74 10.72 29.93 10.72 17.55"/></svg>
