<svg id="Layer_1" data-name="Layer 1" xmlns="http://www.w3.org/2000/svg" xmlns:xlink="http://www.w3.org/1999/xlink" viewBox="0 0 72.04 82.71"><defs><style>.cls-1{fill:#03adb5;}.cls-2{fill:url(#linear-gradient);}.cls-3{fill:url(#linear-gradient-2);}</style><linearGradient id="linear-gradient" x1="126.73" y1="42.91" x2="160.63" y2="76.8" gradientTransform="translate(-9.91 188.5) rotate(-90)" gradientUnits="userSpaceOnUse"><stop offset="0" stop-color="#fff"/><stop offset="1" stop-color="#bababa"/></linearGradient><linearGradient id="linear-gradient-2" x1="-40.94" y1="-155.44" x2="-8.06" y2="-122.56" gradientTransform="translate(189.24 20.03) rotate(-90)" gradientUnits="userSpaceOnUse"><stop offset="0" stop-color="#eff1f2"/><stop offset="1" stop-color="#f3f7f7"/></linearGradient></defs><title>Untitled-3</title><g id="_03" data-name="03"><path class="cls-1" d="M86.1,44.79A36,36,0,1,0,43.57,80.21l6.51,11.27,6.51-11.27A36,36,0,0,0,86.1,44.79Z" transform="translate(-14.07 -8.77)"/></g><g id="_03-2" data-name="03"><path class="cls-2" d="M50.08,20.68a24,24,0,1,1-24,24A24,24,0,0,1,50.08,20.68Z" transform="translate(-14.07 -8.77)"/><path class="cls-3" d="M26.81,44.69A23.28,23.28,0,1,0,50.08,21.41,23.27,23.27,0,0,0,26.81,44.69Z" transform="translate(-14.07 -8.77)"/></g></svg>
