<svg id="Layer_1" data-name="Layer 1" xmlns="http://www.w3.org/2000/svg" viewBox="0 0 49 49"><defs><style>.cls-1{fill:#018f99;}</style></defs><title>Untitled-7</title><path class="cls-1" d="M49.5,25A24.5,24.5,0,1,1,25,.5,24.5,24.5,0,0,1,49.5,25ZM9.7,19.91a33.59,33.59,0,0,0,6,9.91A36.72,36.72,0,0,0,27.88,39.4a18.21,18.21,0,0,0,6.5,2h.39A4.16,4.16,0,0,0,38,40a20.42,20.42,0,0,1,1.57-1.64c.36-.34.69-.66,1-1a1.82,1.82,0,0,0,0-2.84L36.06,30a1.88,1.88,0,0,0-1.33-.68,2,2,0,0,0-1.38.68l-2.83,2.82a1.61,1.61,0,0,1-1.12.51,1.56,1.56,0,0,1-.73-.19l-.08,0a9.1,9.1,0,0,0-.83-.46,9.79,9.79,0,0,1-1-.54,30.26,30.26,0,0,1-7.27-6.62,18.09,18.09,0,0,1-2.65-4.31.14.14,0,0,0,0-.06,1.46,1.46,0,0,1,.38-1.67l0,0c.72-.64,1.38-1.31,2.08-2l.7-.71a2,2,0,0,0,.71-1.41A2,2,0,0,0,20,13.82l-2.25-2.25c-.26-.27-.53-.53-.78-.8-.51-.52-1-1-1.5-1.48a1.93,1.93,0,0,0-1.35-.65,2,2,0,0,0-1.39.64L9.94,12.09a4,4,0,0,0-1.2,2.56A12.17,12.17,0,0,0,9.7,19.91Z" transform="translate(-0.5 -0.5)"/></svg>
